#!OML:ASF F:\VICON\USERDATA\INSTALL\rory3\rory3.ASF
:FULLY-SPECIFIED
:DEGREES
1141
root 0.0236059 17.7167 12.778 2.56745 -20.4639 3.57834
lowerback 0.724231 -0.979112 -6.78367
upperback -0.452761 -1.37815 0.331586
thorax -0.706609 -0.653525 4.16365
lowerneck -17.1162 -7.84888 -13.6411
upperneck 22.7893 -9.1192 7.22463
head 11.2148 -4.52782 3.48873
rclavicle -7.99984e-014 9.93923e-016
rhumerus -31.9125 -12.3148 -80.1048
rradius 27.3635
rwrist 23.9662
rhand -20.2838 2.09196
rfingers 7.12502
rthumb 6.06582 -27.8012
lclavicle -7.99984e-014 9.93923e-016
lhumerus -30.7154 13.3722 77.5797
lradius 28.3561
lwrist -6.24304
lhand -14.9947 26.3742
lfingers 7.12502
lthumb 11.1699 56.0569
rfemur -16.6525 -0.222893 18.3271
rtibia 36.2043
rfoot -22.0863 -7.73626
rtoes 8.50899
lfemur -8.52784 2.38675 -26.8054
ltibia 21.0708
lfoot -11.9588 -0.871124
ltoes -10.85
1142
root 0.0221849 17.716 12.8046 2.52867 -20.5684 3.43848
lowerback 0.680068 -0.960113 -6.56154
upperback -0.488643 -1.34819 0.350328
thorax -0.726855 -0.638063 4.0575
lowerneck -17.0331 -7.85538 -13.6685
upperneck 22.7656 -9.14394 7.26677
head 11.1966 -4.53864 3.5065
rclavicle -7.84578e-015 -5.56597e-015
rhumerus -31.9833 -12.4554 -79.9051
rradius 26.8739
rwrist 24.2606
rhand -20.075 1.99328
rfingers 7.12502
rthumb 6.26742 -27.894
lclavicle -7.84578e-015 -5.56597e-015
lhumerus -30.7324 13.691 77.5983
lradius 28.47
lwrist -6.21784
lhand -15.2957 26.191
lfingers 7.12502
lthumb 10.8795 55.8892
rfemur -16.3708 0.0663861 18.4693
rtibia 35.9548
rfoot -22.2785 -8.11637
rtoes 7.73177
lfemur -8.31581 2.23722 -26.7227
ltibia 21.117
lfoot -12.0642 -0.454059
ltoes -11.7245
1143
root 0.0160292 17.7199 12.8283 2.49102 -20.708 3.20719
lowerback 0.676497 -0.93427 -6.38193
upperback -0.510821 -1.31147 0.446821
thorax -0.753612 -0.618979 4.05643
lowerneck -17.0369 -7.87473 -13.6987
upperneck 22.8196 -9.16266 7.25184
head 11.2209 -4.55224 3.50289
rclavicle 5.14977e-014 -1.2921e-014
rhumerus -32.0605 -12.5841 -79.6483
rradius 26.433
rwrist 24.564
rhand -19.8226 1.78744
rfingers 7.12502
rthumb 6.51105 -28.0925
lclavicle 5.14977e-014 -1.2921e-014
lhumerus -30.7814 13.9655 77.6855
lradius 28.5945
lwrist -5.95007
lhand -15.0464 26.6443
lfingers 7.12502
lthumb 11.12 56.3297
rfemur -16.0885 0.353181 18.7234
rtibia 35.7485
rfoot -22.0504 -8.15819
rtoes 7.83162
lfemur -8.10444 2.22555 -26.5181
ltibia 21.167
lfoot -12.1461 -0.129586
ltoes -12.6293
1144
root 0.00834307 17.72 12.848 2.44555 -20.7959 3.01304
lowerback 0.621127 -0.940933 -6.25224
upperback -0.472868 -1.31322 0.519832
thorax -0.684113 -0.623531 4.05759
lowerneck -17.1394 -7.92982 -13.7709
upperneck 22.8989 -9.23918 7.3549
head 11.2893 -4.57958 3.5377
rclavicle -4.13037e-014 -6.55989e-015
rhumerus -32.0447 -12.9629 -79.3759
rradius 25.9573
rwrist 25.1673
rhand -19.6169 1.66348
rfingers 7.12502
rthumb 6.70961 -28.2102
lclavicle -4.13037e-014 -6.55989e-015
lhumerus -30.7406 14.3321 77.7412
lradius 28.6688
lwrist -5.73999
lhand -14.4614 27.7185
lfingers 7.12502
lthumb 11.6842 57.3727
rfemur -15.8135 0.57878 18.9508
rtibia 35.5648
rfoot -21.9062 -8.1926
rtoes 8.00947
lfemur -7.92144 2.18901 -26.331
ltibia 21.1818
lfoot -12.1912 0.119267
ltoes -12.4832
1145
root 0.00179096 17.7216 12.8744 2.43084 -20.7695 2.99581
lowerback 0.357 -0.985893 -6.19801
upperback -0.419099 -1.35273 0.504768
thorax -0.477195 -0.651493 4.00565
lowerneck -17.2453 -8.03343 -13.8894
upperneck 22.9742 -9.40318 7.57436
head 11.3768 -4.63664 3.60819
rclavicle -2.38728e-014 -3.97569e-015
rhumerus -31.9753 -13.6089 -79.0396
rradius 25.3696
rwrist 26.0115
rhand -19.5104 1.89625
rfingers 7.12502
rthumb 6.81244 -27.9742
lclavicle -2.38728e-014 -3.97569e-015
lhumerus -30.7034 14.6 77.7928
lradius 28.7931
lwrist -5.58734
lhand -14.7748 27.3441
lfingers 7.12502
lthumb 11.3819 57.0152
rfemur -15.5823 0.713177 18.9719
rtibia 35.3895
rfoot -22.0964 -8.40485
rtoes 7.76099
lfemur -7.76234 2.02775 -26.3544
ltibia 21.1493
lfoot -12.2529 0.402407
ltoes -12.7037
1146
root -0.00601993 17.7262 12.9051 2.44585 -20.7192 3.01706
lowerback 0.113705 -1.03023 -6.1818
upperback -0.457882 -1.39624 0.493834
thorax -0.376235 -0.675623 3.98069
lowerneck -17.3093 -8.0852 -13.8805
upperneck 23.0526 -9.49378 7.63501
head 11.4328 -4.66915 3.61272
rclavicle 3.89991e-014 -9.93923e-016
rhumerus -32.0584 -14.2158 -78.6461
rradius 24.856
rwrist 26.8099
rhand -19.3758 2.20251
rfingers 7.12502
rthumb 6.94238 -27.6636
lclavicle 3.89991e-014 -9.93923e-016
lhumerus -30.7449 14.7219 77.8877
lradius 28.7857
lwrist -5.33267
lhand -15.4071 25.5238
lfingers 7.12502
lthumb 10.7721 55.2276
rfemur -15.382 0.739649 18.9308
rtibia 35.2149
rfoot -22.258 -8.48968
rtoes 7.67436
lfemur -7.62311 1.71475 -26.4206
ltibia 21.0892
lfoot -12.2992 0.740218
ltoes -13.3442
1147
root -0.0141797 17.7334 12.9347 2.5117 -20.6609 2.99123
lowerback -0.046542 -1.10936 -6.17246
upperback -0.576829 -1.49425 0.542597
thorax -0.396735 -0.721125 4.02381
lowerneck -17.4079 -8.07533 -13.8698
upperneck 23.2067 -9.47403 7.61209
head 11.506 -4.66164 3.60488
rclavicle -9.10061e-015 -7.7526e-015
rhumerus -32.2786 -14.3024 -78.3718
rradius 24.6277
rwrist 27.2072
rhand -19.1504 2.00439
rfingers 7.12502
rthumb 7.15999 -27.8545
lclavicle -9.10061e-015 -7.7526e-015
lhumerus -30.9461 14.7806 78.0533
lradius 28.855
lwrist -4.95519
lhand -15.1135 26.931
lfingers 7.12502
lthumb 11.0552 56.6199
rfemur -15.2116 0.662066 18.9374
rtibia 35.0186
rfoot -22.2659 -8.41513
rtoes 8.0056
lfemur -7.55216 1.40373 -26.4209
ltibia 21.0574
lfoot -12.2908 0.987479
ltoes -13.1802
1148
root -0.0238553 17.7358 12.9632 2.58059 -20.6483 3.02332
lowerback -0.235145 -1.18458 -6.25629
upperback -0.711384 -1.58582 0.586141
thorax -0.415851 -0.762671 4.11326
lowerneck -17.378 -8.0398 -13.8975
upperneck 23.2508 -9.43155 7.63768
head 11.5146 -4.64386 3.62773
rclavicle 1.74806e-014 1.15295e-014
rhumerus -32.531 -14.2396 -78.1567
rradius 24.4612
rwrist 27.4195
rhand -18.8696 1.90612
rfingers 7.12502
rthumb 7.43105 -27.9434
lclavicle 1.74806e-014 1.15295e-014
lhumerus -31.1902 14.9059 78.1696
lradius 28.939
lwrist -4.66321
lhand -14.8083 27.8181
lfingers 7.12502
lthumb 11.3496 57.491
rfemur -15.0654 0.569641 18.8966
rtibia 34.8052
rfoot -22.2454 -8.29035
rtoes 8.04059
lfemur -7.51829 1.2756 -26.4832
ltibia 21.0573
lfoot -12.3172 1.16442
ltoes -13.2931
1149
root -0.0320596 17.7334 12.9849 2.67649 -20.6255 2.87697
lowerback -0.31777 -1.22806 -6.19363
upperback -0.827154 -1.64132 0.673766
thorax -0.481593 -0.785655 4.16823
lowerneck -17.2684 -8.01711 -13.8382
upperneck 23.1536 -9.41336 7.58739
head 11.4478 -4.63845 3.6043
rclavicle -1.43125e-014 5.96354e-016
rhumerus -32.7256 -14.3865 -77.8847
rradius 24.2528
rwrist 27.6714
rhand -18.7151 2.16157
rfingers 7.12502
rthumb 7.58011 -27.6826
lclavicle -1.43125e-014 5.96354e-016
lhumerus -31.3299 14.9846 78.3334
lradius 28.9064
lwrist -4.44217
lhand -13.7187 28.2279
lfingers 7.12502
lthumb 12.4003 57.8401
rfemur -14.9125 0.437193 19.0686
rtibia 34.6104
rfoot -22.1717 -8.25532
rtoes 7.45038
lfemur -7.46253 1.09863 -26.3451
ltibia 21.0309
lfoot -12.3005 1.36163
ltoes -13.5881
